<?xml version="1.0" standalone="no"?>
<!DOCTYPE svg PUBLIC "-//W3C//DTD SVG 20010904//EN"
 "http://www.w3.org/TR/2001/REC-SVG-20010904/DTD/svg10.dtd">
<svg version="1.0" xmlns="http://www.w3.org/2000/svg"
 width="150" height="50" viewBox="0 0 600.000000 150.000000"
 preserveAspectRatio="xMidYMid meet">
<metadata>
Created by potrace 1.16, written by Peter Selinger 2001-2019
</metadata>
<g transform="translate(0.000000,150.000000) scale(0.100000,-0.100000)"
fill="#000000" stroke="none">
<path d="M1163 1333 c-108 -165 -287 -319 -466 -403 -139 -65 -325 -110 -456
-110 -56 0 -81 -21 -81 -68 0 -38 22 -52 84 -52 124 0 312 -45 444 -105 180
-83 356 -234 468 -401 51 -76 64 -89 91 -92 35 -3 63 19 63 49 0 11 -18 57
-39 102 -86 178 -116 315 -115 517 2 196 37 347 119 510 51 101 45 140 -22
140 -30 0 -37 -7 -90 -87z m-109 -365 c-17 -93 -17 -322 -1 -414 l13 -71 -67
54 c-92 73 -213 145 -314 185 -47 18 -85 36 -85 39 0 3 18 11 40 18 106 31
358 182 409 244 7 9 14 17 15 17 1 0 -3 -33 -10 -72z"/>
<path d="M4296 1159 c-33 -26 -36 -79 -6 -109 30 -30 83 -27 109 6 28 35 26
69 -4 99 -30 30 -64 32 -99 4z"/>
<path d="M1943 925 c-35 -7 -67 -17 -73 -20 -6 -4 -10 -112 -10 -296 l0 -289
55 0 55 0 2 252 3 253 49 9 c31 5 70 5 105 -2 31 -5 58 -8 59 -7 11 10 22 89
13 98 -16 16 -190 18 -258 2z"/>
<path d="M2434 916 c-62 -29 -117 -92 -141 -160 -21 -60 -24 -199 -5 -263 19
-65 70 -124 137 -158 53 -27 67 -30 154 -30 53 0 116 6 140 13 l43 13 -5 45
c-2 25 -7 47 -10 50 -3 3 -22 1 -44 -5 -50 -14 -178 -14 -206 0 -44 23 -78 64
-92 113 -8 27 -15 51 -15 53 0 2 95 3 210 3 l210 0 0 38 c0 58 -20 152 -40
193 -25 48 -81 95 -127 108 -66 19 -153 13 -209 -13z m190 -97 c30 -24 50 -60
59 -106 l7 -33 -145 0 c-142 0 -145 0 -145 22 0 35 47 104 82 121 47 23 109
22 142 -4z"/>
<path d="M3715 929 c-27 -4 -60 -11 -72 -14 l-23 -5 0 -295 0 -295 60 0 60 0
0 254 0 253 60 7 c110 13 170 -20 189 -104 6 -25 11 -127 11 -227 l0 -183 61
0 62 0 -6 218 c-3 139 -10 231 -18 257 -20 57 -85 119 -141 133 -53 13 -168
14 -243 1z"/>
<path d="M4701 909 c-110 -55 -157 -156 -149 -317 5 -105 34 -170 100 -226
120 -103 319 -79 406 49 95 141 77 360 -40 459 -86 74 -212 88 -317 35z m218
-96 c14 -11 37 -40 51 -64 21 -37 25 -57 25 -129 0 -75 -3 -91 -28 -132 -30
-51 -64 -75 -112 -79 -59 -4 -84 1 -116 28 -48 41 -69 95 -69 184 0 100 31
167 93 199 50 25 116 22 156 -7z"/>
<path d="M5355 929 c-27 -5 -60 -12 -72 -14 l-23 -5 0 -295 0 -295 60 0 60 0
0 254 0 253 63 6 c76 8 136 -5 159 -33 31 -38 38 -91 38 -287 l0 -193 61 0 61
0 -4 223 -3 223 -30 59 c-43 84 -94 109 -225 112 -52 1 -117 -3 -145 -8z"/>
<path d="M2950 717 c0 -259 8 -296 76 -356 64 -56 124 -68 264 -52 58 6 115
14 128 17 l22 6 0 299 0 299 -55 0 -55 0 0 -254 c0 -222 -2 -255 -16 -260 -31
-12 -155 -6 -183 9 -56 28 -65 68 -69 298 l-4 207 -54 0 -54 0 0 -213z"/>
<path d="M4290 625 l0 -305 55 0 55 0 0 305 0 305 -55 0 -55 0 0 -305z"/>
</g>
</svg>
